<svg width="87" height="105" viewBox="0 0 87 105" fill="none" xmlns="http://www.w3.org/2000/svg">
<path id="Vector" d="M65.25 15.75V10.5C65.25 7.71523 64.1042 5.04451 62.0648 3.07538C60.0253 1.10625 57.2592 0 54.375 0H32.625C29.7408 0 26.9747 1.10625 24.9352 3.07538C22.8958 5.04451 21.75 7.71523 21.75 10.5V15.75C15.9815 15.75 10.4493 17.9625 6.37043 21.9008C2.29151 25.839 0 31.1805 0 36.75V94.5C0 97.2848 1.14576 99.9555 3.18521 101.925C5.22467 103.894 7.99077 105 10.875 105H76.125C79.0092 105 81.7753 103.894 83.8148 101.925C85.8542 99.9555 87 97.2848 87 94.5V36.75C87 31.1805 84.7085 25.839 80.6296 21.9008C76.5507 17.9625 71.0185 15.75 65.25 15.75ZM32.625 10.5H54.375V15.75H32.625V10.5ZM43.5 36.75L54.375 47.25L43.5 57.75L32.625 47.25L43.5 36.75ZM76.125 73.5H27.1875V84H21.75V73.5H10.875V68.25H76.125V73.5Z" fill="black"/>
</svg>
