<svg width="56" height="56" viewBox="0 0 56 56" fill="none" xmlns="http://www.w3.org/2000/svg">
<g id="google-classroom" clip-path="url(#clip0_87_1133)">
<path id="Vector" d="M53.6667 4.6665H2.33333C1.71449 4.6665 1.121 4.91234 0.683417 5.34992C0.245833 5.78751 0 6.381 0 6.99984L0 48.9998C0 49.6187 0.245833 50.2122 0.683417 50.6498C1.121 51.0873 1.71449 51.3332 2.33333 51.3332H53.6667C54.2855 51.3332 54.879 51.0873 55.3166 50.6498C55.7542 50.2122 56 49.6187 56 48.9998V6.99984C56 6.381 55.7542 5.78751 55.3166 5.34992C54.879 4.91234 54.2855 4.6665 53.6667 4.6665ZM51.3333 46.6665H46.6667V44.3332H35V46.6665H4.66667V9.33317H51.3333V46.6665ZM24.01 22.6565C24.01 21.5983 24.4304 20.5834 25.1786 19.8351C25.9269 19.0869 26.9418 18.6665 28 18.6665C30.2167 18.6665 31.99 20.4632 31.99 22.6565C31.99 24.8732 30.2167 26.6698 28 26.6698C25.7833 26.6698 24.01 24.8732 24.01 22.6565ZM13.3233 26.3432C13.3233 24.6865 14.6767 23.3332 16.3333 23.3332C17.1316 23.3332 17.8972 23.6503 18.4617 24.2148C19.0262 24.7793 19.3433 25.5449 19.3433 26.3432C19.3433 27.9998 17.99 29.3298 16.3333 29.3298C14.6767 29.3298 13.3233 27.9998 13.3233 26.3432ZM36.6567 26.3432C36.6567 25.5449 36.9738 24.7793 37.5383 24.2148C38.1028 23.6503 38.8684 23.3332 39.6667 23.3332C40.465 23.3332 41.2306 23.6503 41.7951 24.2148C42.3595 24.7793 42.6767 25.5449 42.6767 26.3432C42.6767 27.9998 41.3233 29.3298 39.6667 29.3298C38.01 29.3298 36.6567 27.9998 36.6567 26.3432ZM46.6667 35.3265V37.3332H37.3333H32.6667H23.3333H18.6667H9.33333V35.3265C9.33333 33.1332 12.95 31.3365 16.3333 31.3365C17.6167 31.3365 18.9233 31.5932 20.0667 32.0365C21.8167 30.4265 24.9667 29.3298 28 29.3298C31.0333 29.3298 34.1833 30.4265 35.9333 32.0365C37.0767 31.5932 38.3833 31.3365 39.6667 31.3365C43.05 31.3365 46.6667 33.1332 46.6667 35.3265Z" fill="#E7E7E7"/>
</g>
<defs>
<clipPath id="clip0_87_1133">
<rect width="56" height="56" fill="white"/>
</clipPath>
</defs>
</svg>
