<svg width="95" height="89" viewBox="0 0 95 89" fill="none" xmlns="http://www.w3.org/2000/svg">
<path id="Vector" d="M14.25 23.0844V11.125C14.25 5.00625 18.525 0 23.75 0H71.25C76.475 0 80.75 5.00625 80.75 11.125V23.14C75.24 25.4206 71.25 31.5394 71.25 38.7706V50.0625H23.75V38.715C23.75 31.5394 19.76 25.365 14.25 23.0844ZM85.5 27.8125C80.275 27.8125 76 32.8187 76 38.9375V55.625H19V38.9375C19 32.8187 14.7725 27.8125 9.5 27.8125C4.2275 27.8125 0 32.8187 0 38.9375V66.75C0 72.8688 4.275 77.875 9.5 77.875V89H19V77.875H76V89H85.5V77.875C90.725 77.875 95 72.8688 95 66.75V38.9375C95 32.8187 90.725 27.8125 85.5 27.8125Z" fill="black"/>
</svg>
