<svg width="52" height="50" viewBox="0 0 52 50" fill="none" xmlns="http://www.w3.org/2000/svg">
<path id="Vector" d="M39.1747 23.6842L42.3787 20.3684C43.4975 19.2105 44.9215 18.5789 46.4726 18.4211V15.7895L31.2157 0H5.78764C2.96513 0 0.702026 2.34211 0.702026 5.26316V42.1053C0.702026 45 2.96513 47.3684 5.78764 47.3684H21.0445V42.4474L21.3751 42.1053H5.78764V5.26316H23.5873V23.6842H39.1747ZM28.6729 3.94737L42.6584 18.4211H28.6729V3.94737ZM41.7175 28.5L46.9049 33.8684L31.3174 50H26.1301V44.6316L41.7175 28.5ZM51.1768 29.4474L48.6848 32.0263L43.4975 26.6579L45.9894 24.0789C46.4726 23.5526 47.3117 23.5526 47.8203 24.0789L51.1768 27.5526C51.6853 28.0789 51.6853 28.9474 51.1768 29.4474Z" fill="#E7E7E7"/>
</svg>
