<svg width="53" height="50" viewBox="0 0 53 50" fill="none" xmlns="http://www.w3.org/2000/svg">
<g id="card-account-details-outline" clip-path="url(#clip0_87_1024)">
<path id="Vector" d="M48.3722 6.25H4.42238C2.02712 6.33333 0.115304 8.14583 0.0274048 10.4167V39.5833C0.115304 41.8542 2.02712 43.6667 4.42238 43.75H48.3722C50.7674 43.6667 52.6792 41.8542 52.7671 39.5833V10.4167C52.6792 8.14583 50.7674 6.33333 48.3722 6.25ZM48.3722 39.5833H4.42238V10.4167H48.3722V39.5833ZM30.7922 35.4167V32.8125C30.7922 29.3542 23.4526 27.6042 19.8048 27.6042C16.157 27.6042 8.81736 29.3542 8.81736 32.8125V35.4167H30.7922ZM19.8048 14.5833C18.3478 14.5833 16.9504 15.1321 15.9202 16.1088C14.8899 17.0856 14.3111 18.4103 14.3111 19.7917C14.3111 20.4756 14.4532 21.1529 14.7293 21.7848C15.0054 22.4167 15.41 22.9909 15.9202 23.4745C16.9504 24.4513 18.3478 25 19.8048 25C20.5262 25 21.2406 24.8653 21.9072 24.6035C22.5737 24.3418 23.1793 23.9582 23.6894 23.4745C24.1996 22.9909 24.6043 22.4167 24.8803 21.7848C25.1564 21.1529 25.2985 20.4756 25.2985 19.7917C25.2985 19.1077 25.1564 18.4304 24.8803 17.7985C24.6043 17.1666 24.1996 16.5925 23.6894 16.1088C23.1793 15.6252 22.5737 15.2415 21.9072 14.9798C21.2406 14.7181 20.5262 14.5833 19.8048 14.5833ZM30.7922 14.5833V16.6667H43.9772V14.5833H30.7922ZM30.7922 18.75V20.8333H43.9772V18.75H30.7922ZM30.7922 22.9167V25H39.5822V22.9167H30.7922Z" fill="#E7E7E7"/>
</g>
<defs>
<clipPath id="clip0_87_1024">
<rect width="52.7397" height="50" fill="white" transform="translate(0.0274048)"/>
</clipPath>
</defs>
</svg>
