<svg width="64" height="64" viewBox="0 0 64 64" fill="none" xmlns="http://www.w3.org/2000/svg">
<g id="user (1) 1">
<path id="Vector" d="M53.3333 56V50.6667C53.3333 47.8377 52.2095 45.1246 50.2091 43.1242C48.2087 41.1238 45.4956 40 42.6666 40H21.3333C18.5043 40 15.7912 41.1238 13.7908 43.1242C11.7904 45.1246 10.6666 47.8377 10.6666 50.6667V56" stroke="#E7E7E7" stroke-width="4" stroke-linecap="round" stroke-linejoin="round"/>
<path id="Vector_2" d="M32 29.3333C37.8911 29.3333 42.6667 24.5577 42.6667 18.6667C42.6667 12.7756 37.8911 8 32 8C26.109 8 21.3334 12.7756 21.3334 18.6667C21.3334 24.5577 26.109 29.3333 32 29.3333Z" stroke="#E7E7E7" stroke-width="4" stroke-linecap="round" stroke-linejoin="round"/>
<path id="Vector 1" d="M32.2041 14L18 8.28571L32.2041 2L47 8.28571L32.2041 14Z" fill="#E7E7E7" stroke="#E7E7E7" stroke-width="3"/>
<path id="Vector 2" d="M50 8.3501V16.3501" stroke="#E7E7E7" stroke-width="2"/>
</g>
</svg>
