<svg width="14" height="13" viewBox="0 0 14 13" fill="none" xmlns="http://www.w3.org/2000/svg">
<path id="Vector" d="M5.2 0C6.57913 0 7.90177 0.508723 8.87696 1.41426C9.85214 2.31979 10.4 3.54795 10.4 4.82857C10.4 6.02457 9.928 7.124 9.152 7.97086L9.368 8.17143H10L14 11.8857L12.8 13L8.8 9.28571V8.69886L8.584 8.49829C7.672 9.21886 6.488 9.65714 5.2 9.65714C3.82087 9.65714 2.49823 9.14842 1.52304 8.24289C0.547855 7.33735 0 6.10919 0 4.82857C0 3.54795 0.547855 2.31979 1.52304 1.41426C2.49823 0.508723 3.82087 0 5.2 0ZM5.2 1.48571C3.2 1.48571 1.6 2.97143 1.6 4.82857C1.6 6.68571 3.2 8.17143 5.2 8.17143C7.2 8.17143 8.8 6.68571 8.8 4.82857C8.8 2.97143 7.2 1.48571 5.2 1.48571Z" fill="white"/>
</svg>
